<svg width="119" height="113" viewBox="0 0 119 113" fill="none" xmlns="http://www.w3.org/2000/svg">
<g filter="url(#filter0_d_218_30)">
<path d="M38.5 104V104.5H39H55.445H55.945V104V60.7451H97.0106V104V104.5H97.5106H114H114.5V104V1V0.5H114H97.5106H97.0106V1V44.104H55.945V1V0.5H55.445H39H38.5V1V104Z" fill="#919AA4" stroke="white"/>
<path d="M60.0557 31.8636L59.9602 30.9699C59.5653 27.275 57.922 24.4489 55.0164 22.4094L55.0127 22.4068C52.1056 20.3464 48.2651 19.2727 43.4091 19.2727C39.9906 19.2727 37.1145 19.7889 34.7522 20.7851C32.3685 21.7903 30.6033 23.1287 29.3973 24.7732C28.1929 26.4156 27.5743 28.2854 27.5455 30.4156C27.5464 32.1936 27.9474 33.6831 28.7107 34.923C29.5345 36.2114 30.652 37.3207 32.0828 38.2475C33.5593 39.1733 35.2025 39.9595 37.0162 40.603C38.8619 41.2579 40.7215 41.8083 42.5953 42.2545L42.6062 42.2571L42.6062 42.2571L51.3256 44.437C54.8936 45.268 58.3256 46.3915 61.6207 47.8079M60.0557 31.8636L61.2273 48.7273M60.0557 31.8636H60.9545H77.1818H78.1993L78.1817 30.8463C78.0875 25.4169 76.5614 20.5831 73.5903 16.3787C70.6293 12.1583 66.5595 8.88375 61.4171 6.54567C56.2921 4.17136 50.3568 3 43.6364 3C37.0031 3 31.0282 4.17265 25.7305 6.54063C20.436 8.87685 16.2146 12.1792 13.1006 16.4569L13.1006 16.4569L13.0978 16.4608C9.99546 20.7661 8.45455 25.7775 8.45455 31.4545C8.45455 38.367 10.7603 43.9967 15.4175 48.2393L15.4228 48.2441C20.0292 52.3804 26.2494 55.4256 34.0234 57.423C34.0235 57.423 34.0237 57.423 34.0239 57.4231L44.6143 60.1502L44.617 60.1509C47.9105 60.9893 50.7655 61.9426 53.1889 63.0066L53.1956 63.0095L53.2024 63.0123C55.6152 64.0298 57.4299 65.2838 58.6993 66.7464L58.6993 66.7464L58.7055 66.7535C59.9145 68.1202 60.5609 69.874 60.5908 72.0916C60.5607 74.5425 59.8272 76.6548 58.3985 78.4693C56.9498 80.279 54.9217 81.7299 52.2656 82.7985C49.6499 83.8328 46.5682 84.3636 43 84.3636C39.5858 84.3636 36.5247 83.8487 33.8039 82.8357M60.0557 31.8636L33.8039 82.8357M61.6207 47.8079C61.6212 47.8081 61.6217 47.8084 61.6222 47.8086L61.2273 48.7273M61.6207 47.8079C61.6202 47.8077 61.6197 47.8075 61.6191 47.8072L61.2273 48.7273M61.6207 47.8079C64.9741 49.2364 67.9803 51.0416 70.6336 53.2263M61.2273 48.7273C64.5 50.1212 67.4242 51.8788 70 54M70.6336 53.2263C70.6328 53.2257 70.632 53.2251 70.6313 53.2244L70 54M70.6336 53.2263C73.3475 55.4359 75.4964 58.1065 77.0744 61.231C78.6729 64.396 79.4545 68.0713 79.4545 72.2273C79.4545 77.8616 78.0115 82.8625 75.1029 87.1939L75.101 87.1967C72.1921 91.4967 68.0031 94.8357 62.5865 97.2326L62.584 97.2337C57.1827 99.6066 50.6894 100.773 43.1364 100.773C35.7932 100.773 29.3679 99.6362 23.8851 97.3309L23.8833 97.3301C18.4241 95.0217 14.1161 91.6355 10.9979 87.1628L10.9951 87.1589C7.89939 82.6732 6.24924 77.2388 6.00077 70.9028L5.96002 69.8636H7H23.5909H24.5189L24.5881 70.7891C24.8179 73.8629 25.7585 76.3549 27.3654 78.3219C29.0015 80.3248 31.1378 81.8319 33.8039 82.8357M70.6336 53.2263C70.6343 53.2269 70.635 53.2275 70.6357 53.2281L70 54M70 54L33.8039 82.8357" fill="#919AA4" stroke="white" stroke-width="2"/>
</g>
<defs>
<filter id="filter0_d_218_30" x="0.920044" y="0" width="118.08" height="113" filterUnits="userSpaceOnUse" color-interpolation-filters="sRGB">
<feFlood flood-opacity="0" result="BackgroundImageFix"/>
<feColorMatrix in="SourceAlpha" type="matrix" values="0 0 0 0 0 0 0 0 0 0 0 0 0 0 0 0 0 0 127 0" result="hardAlpha"/>
<feOffset dy="4"/>
<feGaussianBlur stdDeviation="2"/>
<feComposite in2="hardAlpha" operator="out"/>
<feColorMatrix type="matrix" values="0 0 0 0 0 0 0 0 0 0 0 0 0 0 0 0 0 0 0.25 0"/>
<feBlend mode="normal" in2="BackgroundImageFix" result="effect1_dropShadow_218_30"/>
<feBlend mode="normal" in="SourceGraphic" in2="effect1_dropShadow_218_30" result="shape"/>
</filter>
</defs>
</svg>
