<svg width="437" height="263" viewBox="0 0 437 263" fill="none" xmlns="http://www.w3.org/2000/svg">
<path fill-rule="evenodd" clip-rule="evenodd" d="M218.462 228.848C241.484 250.061 272.399 262.927 306.027 262.927C378.247 262.927 436.699 204.023 436.699 131.575C436.699 58.9067 378.247 0 306.027 0C272.399 0 241.484 12.864 218.462 34.0792C192.057 58.2267 175.355 92.9832 175.355 131.575C175.357 170.167 192.057 204.926 218.462 228.848V228.848Z" fill="#E9B040"/>
<path fill-rule="evenodd" clip-rule="evenodd" d="M419.327 204.698C419.327 202.44 421.134 200.636 423.389 200.636C425.87 200.636 427.673 202.443 427.673 204.698C427.673 207.184 425.867 208.988 423.389 208.988C421.134 208.988 419.327 207.184 419.327 204.698ZM423.389 208.087C425.195 208.087 426.77 206.504 426.77 204.7C426.77 202.897 425.192 201.542 423.389 201.542C421.806 201.542 420.23 202.897 420.23 204.7C420.23 206.504 421.808 208.087 423.389 208.087ZM422.937 206.732H422.034V202.894H423.612C423.84 202.894 424.292 202.894 424.515 203.123C424.967 203.346 424.967 203.574 424.967 204.026C424.967 204.477 424.743 204.929 424.292 204.929L425.195 206.735H424.063L423.612 205.152H422.937V206.732V204.475H423.84C424.063 204.475 424.063 204.246 424.063 204.023C424.063 203.795 424.063 203.795 423.84 203.572H422.937V206.732V206.732Z" fill="#E9B040"/>
<path fill-rule="evenodd" clip-rule="evenodd" d="M260.667 117.585C260.215 112.846 259.312 108.333 258.409 103.592H178.516C179.419 98.8534 180.774 94.3405 182.126 89.825H254.574C253.001 85.0739 251.193 80.4039 249.158 75.8321H187.77C190.028 71.0516 192.513 66.382 195.218 61.8392H241.486C238.509 57.0192 235.191 52.4184 231.558 48.0721H205.15C209.234 43.0835 213.685 38.4063 218.465 34.0792C195.221 13.0898 164.526 0 130.672 0C58.6783 0 0 58.9067 0 131.575C0 204.023 58.6783 262.927 130.672 262.927C164.526 262.927 195.218 250.061 218.465 228.848C223.172 224.597 227.549 219.994 231.558 215.078H205.15C201.537 210.566 198.379 206.053 195.218 201.086H241.486C244.396 196.623 246.961 191.945 249.16 187.093H187.77C185.738 182.58 183.709 178.067 182.126 173.323H254.574C256.151 168.81 257.283 164.074 258.407 159.33C259.31 154.817 260.213 150.081 260.664 145.337C261.122 140.761 261.349 136.166 261.344 131.567C261.344 126.837 261.118 122.098 260.667 117.585V117.585Z" fill="#CC2131"/>
<path fill-rule="evenodd" clip-rule="evenodd" d="M419.327 162.044C419.327 159.564 421.134 157.76 423.389 157.76C425.87 157.76 427.673 159.566 427.673 162.044C427.673 164.302 425.867 166.334 423.389 166.334C421.134 166.334 419.327 164.3 419.327 162.044ZM423.389 165.203C425.195 165.203 426.77 163.848 426.77 162.044C426.77 160.241 425.192 158.886 423.389 158.886C421.806 158.886 420.23 160.241 420.23 162.044C420.23 163.848 421.808 165.203 423.389 165.203ZM422.937 163.848H422.034V160.238H424.515C424.967 160.467 424.967 160.918 424.967 161.37C424.967 161.593 424.743 162.044 424.292 162.273L425.195 163.851H424.063L423.612 162.496H422.937V163.848V161.819H423.389C423.612 161.819 423.84 161.819 423.84 161.59C424.063 161.59 424.063 161.367 424.063 161.139C424.063 161.139 424.063 160.916 423.84 160.916C423.84 160.687 423.612 160.916 423.389 160.916H422.937V163.848V163.848Z" fill="white"/>
<path fill-rule="evenodd" clip-rule="evenodd" d="M174.003 169.493C169.716 170.619 166.555 171.299 163.397 171.299C156.626 171.299 152.562 167.009 152.562 159.335C152.562 157.758 152.788 156.177 153.013 154.371L153.917 149.183L154.594 144.893L160.687 107.882H174.229L172.648 116.007H181.225L179.193 129.549H170.616L167.006 151.664C166.781 152.796 166.781 153.47 166.781 153.922C166.781 156.857 168.135 157.983 171.519 157.983C173.1 157.983 174.452 157.76 175.806 157.532L174.003 169.493V169.493ZM217.788 169.041C212.823 170.396 208.31 171.07 203.343 171.07C187.996 171.07 179.193 162.945 179.193 146.925C179.193 128.191 189.576 114.65 204.018 114.65C215.527 114.65 222.975 122.324 222.975 134.282C222.975 138.349 222.524 142.184 221.398 147.6H193.186C192.96 148.503 192.96 148.955 192.96 149.406C192.96 155.726 197.247 158.884 205.373 158.884C210.563 158.884 215.076 157.758 220.043 155.502L217.788 169.041ZM209.437 136.768V134.059C209.437 129.546 206.953 127.062 202.666 127.062C198.15 127.062 194.992 130.446 193.637 136.766H209.437V136.768V136.768ZM65.672 170.167H51.6791L59.8044 118.94L41.5244 170.167H31.8213L30.6924 119.165L22.1155 170.167H8.34839L19.4062 103.592H39.944L40.3955 144.67L54.1627 103.592H76.7325L65.672 170.167V170.167ZM99.7538 146.022C98.3992 145.794 97.9476 145.794 97.0445 145.794C88.9191 145.794 84.8578 148.952 84.8578 153.919C84.8578 157.306 86.8898 159.564 90.048 159.564C96.8187 159.564 99.5254 153.919 99.7538 146.022ZM111.037 170.167H98.8507L99.0765 164.528C95.9156 168.813 91.6285 171.07 84.1805 171.07C77.4098 171.07 71.5422 164.98 71.5422 156.177C71.5422 153.696 71.9938 151.441 72.6711 149.183C74.9262 140.83 83.2774 135.642 96.1414 135.413C97.7218 135.413 100.203 135.413 102.46 135.642C102.909 133.836 102.909 133.156 102.909 132.029C102.909 128.417 99.9769 127.288 93.432 127.288C89.3707 127.288 84.8551 127.965 81.6969 129.094L79.6649 129.546L78.7618 129.769L80.7938 117.582C87.3387 115.55 92.0774 114.65 97.2703 114.65C109.457 114.65 116.002 120.292 116.002 130.672C116.002 133.382 116.228 135.413 115.325 141.281L112.166 160.69L111.715 164.077L111.489 166.786L111.263 168.592L111.037 170.167V170.167ZM285.946 116.456C290.007 116.456 293.62 117.585 298.584 120.066L301.065 105.621C299.71 104.944 299.259 104.944 297.455 104.267L291.816 102.686C290.01 102.235 287.755 102.009 285.269 102.009C278.27 102.009 274.208 102.235 269.924 104.718C267.666 106.299 264.731 108.331 261.57 111.941L259.764 111.489L245.319 121.644L245.999 116.002H231.101L222.303 170.165H236.525L241.712 141.055C241.712 141.055 243.747 136.989 244.647 135.639C247.357 132.253 249.612 132.253 252.544 132.253H253.676C253.202 135.692 252.975 139.161 252.996 142.633C252.996 160.236 262.925 171.296 278.272 171.296C282.11 171.296 285.5 170.845 290.687 169.49L293.174 154.145C288.661 156.626 284.597 157.755 281.21 157.755C272.862 157.755 267.892 151.436 267.892 141.507C267.886 126.837 275.337 116.456 285.946 116.456V116.456ZM405.781 103.592L402.625 122.549C399.239 117.359 395.175 114.876 389.759 114.876C382.308 114.876 375.314 119.163 371.024 127.288V127.065L361.999 121.646L362.902 116.005H347.78L339.203 170.167H353.196L357.937 141.058C357.937 141.058 361.547 136.991 362.45 135.642C364.708 132.933 366.963 132.478 368.769 132.255C367.191 136.768 366.288 142.184 366.288 148.28C366.288 161.822 373.282 170.847 383.663 170.847C388.855 170.847 392.917 169.041 396.752 164.751L396.078 170.167H409.396L420.228 103.592H405.781V103.592ZM388.407 157.306C383.665 157.306 381.184 153.696 381.184 146.697C381.184 136.088 385.697 128.417 392.239 128.417C397.204 128.417 399.69 132.255 399.69 139.026C399.69 149.858 395.177 157.306 388.407 157.306V157.306ZM323.186 146.022C321.831 145.794 321.38 145.794 320.477 145.794C312.346 145.794 308.285 148.952 308.285 153.919C308.285 157.306 310.319 159.564 313.478 159.564C320.248 159.564 322.958 153.919 323.186 146.022ZM334.47 170.167H322.054L322.506 164.528C319.348 168.813 315.055 171.07 307.613 171.07C300.614 171.07 294.523 165.203 294.523 156.177C294.523 143.316 304.223 135.416 319.571 135.416C321.154 135.416 323.632 135.416 325.667 135.645C326.118 133.838 326.347 133.158 326.347 132.032C326.347 128.42 323.412 127.291 316.641 127.291C312.803 127.291 308.064 127.968 304.906 129.097L303.1 129.549L302.197 129.772L304.226 117.585C310.774 115.553 315.515 114.653 320.702 114.653C332.889 114.653 339.208 120.294 339.208 130.675C339.208 133.384 339.66 135.416 338.534 141.284L335.598 160.693L335.147 164.079L334.695 166.789L334.472 168.595V170.167H334.47V170.167ZM140.601 127.514C143.31 127.514 147.146 127.74 151.21 128.417L153.242 115.779C149.178 115.327 143.762 114.65 140.601 114.65C124.805 114.65 119.614 123.227 119.614 133.156C119.614 139.703 122.547 144.439 130.221 148.049C135.862 150.758 136.765 151.207 136.765 153.694C136.765 157.075 133.833 159.11 128.414 159.11C124.127 159.11 120.063 158.43 115.55 156.852L113.97 169.262L114.193 169.49L116.902 169.942C117.805 170.165 118.934 170.393 120.515 170.616C123.899 170.845 126.834 171.068 128.64 171.068C144.439 171.068 150.984 164.977 150.984 153.014C150.984 145.568 147.372 141.055 140.375 137.897C134.282 135.185 133.605 134.739 133.605 132.253C133.605 129.772 136.314 127.514 140.601 127.514V127.514Z" fill="#1B3771"/>
<path fill-rule="evenodd" clip-rule="evenodd" d="M304.903 101.334L302.417 115.779C297.453 113.295 293.84 112.169 289.779 112.169C279.17 112.169 271.725 122.549 271.725 137.22C271.725 147.377 276.689 153.468 285.043 153.468C288.424 153.468 292.488 152.341 297.001 150.086L294.52 165.203C289.327 166.557 285.943 167.237 282.105 167.237C266.76 167.237 257.28 156.177 257.28 138.351C257.28 114.652 270.37 97.9502 289.102 97.9502C291.583 97.9502 293.838 98.176 295.644 98.6275L301.288 99.9822C303.097 100.66 303.549 100.885 304.903 101.334V101.334ZM259.312 111.266H257.958C253.222 111.266 250.512 113.524 246.222 120.066L247.577 111.715H234.71L225.913 165.88H240.134C245.322 132.704 246.677 127.062 253.447 127.062H254.35C255.705 120.517 257.509 115.776 259.766 111.489L259.312 111.266V111.266ZM177.615 165.203C173.78 166.557 170.619 167.009 167.461 167.009C160.238 167.009 156.174 162.948 156.174 155.051C156.174 153.696 156.4 151.892 156.626 150.309L157.529 144.893L158.206 140.609L164.3 103.592H178.293L176.712 111.717H183.934L182.128 125.033H174.906L171.07 147.603C170.845 148.506 170.845 149.186 170.845 149.86C170.845 152.57 172.199 153.699 175.583 153.699C177.164 153.699 178.516 153.699 179.419 153.247L177.615 165.203V165.203ZM123.224 128.868C123.224 135.642 126.382 140.378 133.83 143.99C139.698 146.7 140.601 147.6 140.601 149.858C140.601 153.244 138.117 154.822 132.476 154.822C128.189 154.822 124.35 154.148 119.837 152.793L117.805 165.203L118.483 165.431L120.966 165.883C121.867 166.106 122.998 166.334 124.802 166.334C127.96 166.786 130.669 166.786 132.476 166.786C147.369 166.786 154.368 161.141 154.368 148.732C154.368 141.281 151.436 136.991 144.439 133.61C138.346 130.9 137.669 130.226 137.669 127.742C137.669 124.81 140.152 123.455 144.665 123.455C147.374 123.455 151.21 123.681 154.822 124.132L156.852 111.72C153.242 111.043 147.6 110.591 144.439 110.591C128.64 110.588 122.998 118.94 123.224 128.868V128.868ZM413.008 165.883H399.69L400.37 160.69C396.532 164.751 392.468 166.557 387.275 166.557C376.895 166.557 370.124 157.76 370.124 144.219C370.124 126.162 380.733 110.814 393.143 110.814C398.787 110.814 402.848 113.298 406.689 118.262L409.848 99.3049H423.84L413.008 165.883V165.883ZM392.242 153.244C398.79 153.244 403.303 145.571 403.303 134.962C403.303 127.965 400.816 124.353 395.852 124.353C389.533 124.353 384.797 131.801 384.797 142.41C384.797 149.635 387.278 153.244 392.242 153.244V153.244ZM220.946 164.751C215.979 166.334 211.466 167.009 206.276 167.009C190.477 167.009 182.351 158.66 182.351 142.636C182.351 124.13 192.734 110.363 206.953 110.363C218.688 110.363 226.134 118.036 226.134 129.997C226.134 134.061 225.682 137.9 224.327 143.539H196.347C196.121 144.219 196.121 144.67 196.121 145.122C196.121 151.441 200.411 154.599 208.534 154.599C213.724 154.599 218.237 153.696 223.204 151.212L220.946 164.751V164.751ZM213.046 132.478V129.772C213.046 125.259 210.563 122.775 206.276 122.775C201.763 122.775 198.602 126.162 197.247 132.478H213.046ZM69.2845 165.883H55.2916L63.4169 114.65L45.1369 165.883H35.4311L34.3022 115.101L25.728 165.883H12.6382L23.696 99.3049H44.008L44.6853 140.606L58.224 99.3049H80.3423L69.2845 165.883V165.883ZM104.267 141.732C102.912 141.732 102.235 141.509 101.106 141.509C93.2063 141.509 89.1449 144.442 89.1449 149.858C89.1449 153.244 90.9512 155.274 94.1094 155.274C99.977 155.274 104.041 149.858 104.267 141.732ZM114.647 165.883H102.909L103.135 160.238C99.5227 164.751 94.7841 166.786 88.2392 166.786C80.5654 166.786 75.3752 160.918 75.3752 152.116C75.3752 138.803 84.401 131.129 100.2 131.129C101.781 131.129 103.813 131.355 106.068 131.578C106.519 129.774 106.519 129.097 106.519 128.194C106.519 124.584 104.036 123.229 97.4907 123.229C93.4294 123.229 88.9138 123.681 85.7556 124.584L83.7236 125.261L82.3689 125.487L84.401 113.3C91.3974 111.268 96.1361 110.591 101.329 110.591C113.516 110.591 120.061 116.007 120.061 126.388C120.061 129.097 119.835 131.129 118.932 137.222L115.771 156.408L115.319 159.789L115.093 162.499L114.868 164.533L114.647 165.883V165.883ZM327.699 141.732C326.116 141.732 325.441 141.509 324.541 141.509C316.415 141.509 312.349 144.442 312.349 149.858C312.349 153.244 314.383 155.274 317.542 155.274C323.186 155.274 327.471 149.858 327.699 141.732V141.732ZM338.079 165.883H326.344L326.567 160.238C322.958 164.751 318.219 166.786 311.674 166.786C304 166.786 298.807 160.918 298.807 152.116C298.807 138.803 307.833 131.129 323.632 131.129C325.215 131.129 327.247 131.355 329.277 131.578C329.728 129.774 329.957 129.097 329.957 128.194C329.957 124.584 327.471 123.229 320.931 123.229C316.864 123.229 312.128 123.681 308.967 124.584L307.161 125.261L305.806 125.487L307.836 113.3C314.835 111.268 319.571 110.591 324.764 110.591C336.951 110.591 343.27 116.007 343.27 126.388C343.27 129.097 343.27 131.129 342.143 137.222L339.208 156.408L338.757 159.789L338.305 162.499L338.082 164.533V165.883H338.079V165.883ZM375.994 111.266H374.639C369.903 111.266 367.194 113.524 362.904 120.066L364.259 111.715H351.392L342.815 165.88H356.808C362.001 132.704 363.356 127.062 370.127 127.062H371.03C372.384 120.517 374.188 115.776 376.446 111.489L375.994 111.266V111.266Z" fill="white"/>
</svg>
